<svg xmlns="http://www.w3.org/2000/svg" width="304" height="304" viewBox="0 0 304 304">
  <g id="Group_1774" data-name="Group 1774" transform="translate(-279 -162)">
    <circle id="Ellipse_80" data-name="Ellipse 80" cx="152" cy="152" r="152" transform="translate(279 162)" fill="#fff"/>
    <path id="Path_1987" data-name="Path 1987" d="M-41.28-12.32v4.01h5.06v2.07h-5.06v4.09h6.42V0h-9.12V-14.46h9.12v2.14Zm18.9.07h-4.36V0h-2.69V-12.25h-4.36v-2.21h11.41Zm4.6-.07v4.28h5.42v2.15h-5.42V0h-2.7V-14.46h9.12v2.14ZM-4.22-8.26a.659.659,0,0,1-.21.225.544.544,0,0,1-.28.065.882.882,0,0,1-.385-.1Q-5.3-8.17-5.57-8.3a4.351,4.351,0,0,0-.615-.225A2.946,2.946,0,0,0-7-8.62a1.876,1.876,0,0,0-1.145.31.965.965,0,0,0-.415.81.773.773,0,0,0,.215.555,1.933,1.933,0,0,0,.57.4,5.579,5.579,0,0,0,.8.3q.45.135.915.295t.915.365a3.208,3.208,0,0,1,.8.52,2.415,2.415,0,0,1,.57.755A2.4,2.4,0,0,1-3.55-3.25a3.461,3.461,0,0,1-.265,1.365A2.949,2.949,0,0,1-4.6-.805a3.7,3.7,0,0,1-1.285.71A5.579,5.579,0,0,1-7.65.16a5.587,5.587,0,0,1-1.035-.1A6.109,6.109,0,0,1-9.655-.2a5.368,5.368,0,0,1-.86-.4,4.174,4.174,0,0,1-.7-.5l.57-.94a.806.806,0,0,1,.26-.26A.729.729,0,0,1-10-2.39a.8.8,0,0,1,.435.13q.2.13.475.28a4.246,4.246,0,0,0,.635.28,2.794,2.794,0,0,0,.925.13,2.4,2.4,0,0,0,.755-.105,1.6,1.6,0,0,0,.52-.275,1.032,1.032,0,0,0,.3-.4A1.184,1.184,0,0,0-5.86-2.81a.83.83,0,0,0-.215-.59,1.882,1.882,0,0,0-.57-.4,5.505,5.505,0,0,0-.81-.305q-.455-.135-.93-.3a8.6,8.6,0,0,1-.93-.375,3.17,3.17,0,0,1-.81-.545,2.467,2.467,0,0,1-.57-.81,2.827,2.827,0,0,1-.215-1.16,2.955,2.955,0,0,1,.25-1.2,2.815,2.815,0,0,1,.735-.995,3.65,3.65,0,0,1,1.21-.68A5.04,5.04,0,0,1-7.04-10.42a5.128,5.128,0,0,1,1.93.35,4.359,4.359,0,0,1,1.45.92Zm2.39-6v1.98H16.03v-1.98H8.31c-.34-.84-.7-1.62-1.06-2.32l-2.34.4a14.866,14.866,0,0,1,1.08,1.92Zm12.28,2.1L9.03-10.8a34.158,34.158,0,0,1,5.48,5.3l1.54-1.56A41.749,41.749,0,0,0,10.45-12.16Zm-.3,3.78A15.5,15.5,0,0,1,7.09-4.34,14.062,14.062,0,0,1,3.95-8.26L2.15-7.24A17.489,17.489,0,0,0,5.47-3,21.842,21.842,0,0,1-2.03.26l1.3,1.92a21.309,21.309,0,0,0,7.9-3.76,23.556,23.556,0,0,0,7.84,3.7L16.31.16A23.553,23.553,0,0,1,8.79-3.02a18.354,18.354,0,0,0,3.28-4.5ZM3.59-12.14A22.28,22.28,0,0,1-1.89-7.38L-.55-5.62a22.79,22.79,0,0,0,5.66-5.2ZM23.17-8.28a12.121,12.121,0,0,1-4.84,3.02l1.14,1.84a21.334,21.334,0,0,0,3.2-1.86h2.4a13.77,13.77,0,0,1-5.7,3.4L20.69-.26a13.85,13.85,0,0,0,6.66-5.02h1.94A11.784,11.784,0,0,1,22.15.3l1.18,1.76a13.251,13.251,0,0,0,8.12-7.34h1.42a15.342,15.342,0,0,1-.54,4.32,1.673,1.673,0,0,1-1.7.98c-.76,0-1.56-.04-2.38-.1l.52,1.96h2.86a2.639,2.639,0,0,0,2.06-.84,6.278,6.278,0,0,0,.94-2.82,53.482,53.482,0,0,0,.36-5.34H24.71a12.813,12.813,0,0,0,.9-1.16h7.86v-7.54H20.81v7.54Zm8.24-1.76H22.87v-1.2h8.54Zm-8.54-2.84v-1.18h8.54v1.18Zm20.11.83a2.791,2.791,0,0,1-.355.185,1.528,1.528,0,0,1-.365.1,1.768,1.768,0,0,1,.72.28l1.59.93-.58,1-1.59-.93a3.689,3.689,0,0,1-.335-.23,1.51,1.51,0,0,1-.265-.26,2.063,2.063,0,0,1,.13.76v1.84H40.75V-10.2a2.987,2.987,0,0,1,.025-.39,1.774,1.774,0,0,1,.085-.36,1.324,1.324,0,0,1-.26.25q-.15.11-.32.22l-1.58.92-.59-1,1.59-.92a2.225,2.225,0,0,1,.72-.28,2.019,2.019,0,0,1-.72-.29l-1.59-.93.58-1,1.59.94a3.793,3.793,0,0,1,.33.225,1.783,1.783,0,0,1,.27.255,2.034,2.034,0,0,1-.13-.75v-1.85h1.18v1.83a3.067,3.067,0,0,1-.025.4,1.432,1.432,0,0,1-.095.36,1.6,1.6,0,0,1,.27-.25q.15-.11.32-.22l1.58-.92.59,1Z" transform="translate(431 410)" fill="#03468e"/>
    <g id="Group_1774-2" data-name="Group 1774" transform="translate(340.873 231.405)">
      <path id="Path_1858" data-name="Path 1858" d="M15.835-24.8v7.339a14.783,14.783,0,0,0-8.14,4.4A13.559,13.559,0,0,0,4.359-3.65,10.225,10.225,0,0,0,7.228,4.089c1,1.067,3.069,2.669,7.339,4.137L18.5,9.56a11.847,11.847,0,0,1,3,1.334A3.136,3.136,0,0,1,22.84,13.43a4,4,0,0,1-1.2,2.8A6.029,6.029,0,0,1,17.3,17.766a15.689,15.689,0,0,1-6.071-1.535,20.97,20.97,0,0,1-4.6-3.4l-4.8,8.94a27.031,27.031,0,0,0,6.472,3.8,21.209,21.209,0,0,0,7.539,1.6v7.206h6.672V26.84A17.656,17.656,0,0,0,30.513,22.5a14.029,14.029,0,0,0,3.736-10.074,10.444,10.444,0,0,0-3.336-8.14,18.6,18.6,0,0,0-7.739-4.2L19.7-1.115a10.389,10.389,0,0,1-3.069-1.668,3.087,3.087,0,0,1-.934-2.2,2.874,2.874,0,0,1,1-2.2,5.973,5.973,0,0,1,4-1.2,12.679,12.679,0,0,1,7.472,2.869l4.4-8.54a21.849,21.849,0,0,0-10.074-3.4V-24.8Z" transform="translate(-1.824 35.418)" fill="#03468e"/>
      <path id="Path_1857" data-name="Path 1857" d="M58.7-42.613a16.384,16.384,0,0,1,10.65,4.206C76.383-32.2,81-15.174,81-3.358c0,11.416-4.22,28.24-11.654,34.648A16.384,16.384,0,0,1,58.7,35.5a16.384,16.384,0,0,1-10.65-4.206C40.215,24.481,36.4,7.057,36.4-3.558c0-12.417,4.421-28.64,11.654-34.849A16.384,16.384,0,0,1,58.7-42.613ZM115.566-3.758c0-23.633-7.837-42.86-19.893-54.677A52.965,52.965,0,0,0,58.7-73.656,52.965,52.965,0,0,0,21.729-58.435C9.673-46.618,1.836-27.391,1.836-3.758c0,23.433,7.837,42.66,19.893,54.476a52.513,52.513,0,0,0,73.944,0C107.729,38.9,115.566,19.675,115.566-3.758Z" transform="translate(38.613 73.656)" fill="#03468e"/>
    </g>
  </g>
</svg>
