<svg xmlns="http://www.w3.org/2000/svg" width="30" height="30" viewBox="0 0 30 30">
  <g id="Group_1734" data-name="Group 1734" transform="translate(-1006 -1105)">
    <rect id="Rectangle_1673" data-name="Rectangle 1673" width="30" height="30" transform="translate(1006 1105)" fill="#fff" opacity="0"/>
    <g id="Group_1733" data-name="Group 1733" transform="translate(2.596 2.745)">
      <g id="phone" transform="translate(1009.419 1102.255)">
        <g id="Group_944" data-name="Group 944">
          <path id="Path_1243" data-name="Path 1243" d="M24.941,33.7H13.648a3.262,3.262,0,0,1-3.338-3.17V6.87A3.262,3.262,0,0,1,13.648,3.7H24.941A3.262,3.262,0,0,1,28.28,6.87v23.67A3.266,3.266,0,0,1,24.941,33.7ZM13.648,5.476A1.485,1.485,0,0,0,12.086,6.87v23.67a1.491,1.491,0,0,0,1.563,1.394H24.941A1.485,1.485,0,0,0,26.5,30.539V6.87a1.491,1.491,0,0,0-1.563-1.394Z" transform="translate(-10.31 -3.7)" fill="#4e6580"/>
        </g>
        <g id="Group_945" data-name="Group 945" transform="translate(2.939 4.634)">
          <path id="Path_1244" data-name="Path 1244" d="M24.824,29H14.508a.89.89,0,0,1-.888-.888V9.808a.89.89,0,0,1,.888-.888H24.824a.89.89,0,0,1,.888.888V28.115A.89.89,0,0,1,24.824,29ZM15.4,27.227h8.541V10.7H15.4Z" transform="translate(-13.62 -8.92)" fill="#4e6580"/>
        </g>
        <g id="Group_946" data-name="Group 946" transform="translate(7.84 25.516)">
          <path id="Path_1245" data-name="Path 1245" d="M20.285,32.44h0a1.148,1.148,0,0,1,1.145,1.145h0a1.148,1.148,0,0,1-1.145,1.145h0a1.148,1.148,0,0,1-1.145-1.145h0A1.142,1.142,0,0,1,20.285,32.44Z" transform="translate(-19.14 -32.44)" fill="#4e6580"/>
        </g>
        <g id="Group_947" data-name="Group 947" transform="translate(7.254 3.036)">
          <path id="Path_1246" data-name="Path 1246" d="M21.943,7.466a.3.3,0,0,1-.3.3H18.782a.3.3,0,0,1-.3-.3V7.422a.3.3,0,0,1,.3-.3h2.859a.3.3,0,0,1,.3.3Z" transform="translate(-18.48 -7.12)" fill="#4e6580"/>
        </g>
      </g>
    </g>
  </g>
</svg>
