<svg xmlns="http://www.w3.org/2000/svg" width="30" height="30" viewBox="0 0 30 30">
  <g id="Group_1732" data-name="Group 1732" transform="translate(-1006 -1046)">
    <rect id="Rectangle_1672" data-name="Rectangle 1672" width="30" height="30" transform="translate(1006 1046)" fill="#fff" opacity="0"/>
    <g id="email" transform="translate(1008 1049.62)">
      <g id="Group_940" data-name="Group 940" transform="translate(0 0.009)">
        <path id="Path_1239" data-name="Path 1239" d="M28.543,30.017H7.8A3.159,3.159,0,0,1,4.82,26.931V24.8a1.394,1.394,0,0,1,.017-.188V10.394a3.3,3.3,0,0,1,3.4-3.154h19.12c1.108,0,4.049,0,4.049,3.3,0,1.56.034,14.773.034,14.773h0v1.56A3.3,3.3,0,0,1,28.543,30.017ZM8.23,8.936a1.628,1.628,0,0,0-1.7,1.466V24.689a1.155,1.155,0,0,1-.017.17v2.071a1.469,1.469,0,0,0,1.279,1.381h20.74a1.657,1.657,0,0,0,1.185-1.449V25.3c.009-.2-.026-13.23-.026-14.773,0-1.125-.324-1.594-2.344-1.594H8.23Z" transform="translate(-4.82 -7.24)" fill="#4e6580"/>
      </g>
      <g id="Group_941" data-name="Group 941">
        <path id="Path_1240" data-name="Path 1240" d="M18.109,23.963a.838.838,0,0,1-.426-.111C15.535,22.608,4.82,16.232,4.82,12.583v-2.2A3.265,3.265,0,0,1,7.667,7.23h20.74a3.168,3.168,0,0,1,2.958,2.7.841.841,0,0,1,.026.2v2.31c0,3.657-10.707,10.135-12.846,11.4A.818.818,0,0,1,18.109,23.963ZM7.659,8.935a1.638,1.638,0,0,0-1.142,1.449v2.2c0,.384.426,1.952,5.865,5.822,2.378,1.688,4.774,3.145,5.72,3.717,4.953-2.958,11.576-7.749,11.576-9.675V10.316A1.469,1.469,0,0,0,28.4,8.935H7.659Z" transform="translate(-4.82 -7.23)" fill="#4e6580"/>
      </g>
    </g>
  </g>
</svg>
