<svg xmlns="http://www.w3.org/2000/svg" xmlns:xlink="http://www.w3.org/1999/xlink" width="100" height="100" viewBox="0 0 100 100">
  <defs>
    <clipPath id="clip-path">
      <rect id="Rectangle_1662" data-name="Rectangle 1662" width="91.684" height="90.644" fill="none"/>
    </clipPath>
    <clipPath id="clip-path-2">
      <rect id="Rectangle_1661" data-name="Rectangle 1661" width="29.714" height="21.949" fill="none"/>
    </clipPath>
  </defs>
  <g id="Group_1726" data-name="Group 1726" transform="translate(-561 -779)">
    <rect id="Rectangle_1666" data-name="Rectangle 1666" width="100" height="100" transform="translate(561 779)" fill="#ba8d8d" opacity="0.002"/>
    <g id="Group_1717" data-name="Group 1717" transform="translate(565.316 784.355)">
      <g id="Group_1716" data-name="Group 1716" clip-path="url(#clip-path)">
        <path id="Path_1931" data-name="Path 1931" d="M95.4,30.2a1.181,1.181,0,0,1-1.181-1.181V25.782a1.181,1.181,0,1,1,2.362,0v3.236A1.181,1.181,0,0,1,95.4,30.2" transform="translate(-49.713 -12.98)" fill="#5282f0"/>
        <path id="Path_1932" data-name="Path 1932" d="M95.4,44.777A1.181,1.181,0,0,1,94.22,43.6V40.132a1.181,1.181,0,1,1,2.362,0V43.6A1.181,1.181,0,0,1,95.4,44.777" transform="translate(-49.713 -20.551)" fill="#5282f0"/>
        <path id="Path_1933" data-name="Path 1933" d="M95.4,59.368a1.18,1.18,0,0,1-1.181-1.181V54.952a1.181,1.181,0,1,1,2.362,0v3.235A1.18,1.18,0,0,1,95.4,59.368" transform="translate(-49.713 -28.371)" fill="#5282f0"/>
        <path id="Path_1934" data-name="Path 1934" d="M95.4,121.44a1.18,1.18,0,0,1-1.181-1.181v-.709a1.181,1.181,0,1,1,2.362,0v.709A1.18,1.18,0,0,1,95.4,121.44" transform="translate(-49.713 -62.455)" fill="#5282f0"/>
        <path id="Path_1935" data-name="Path 1935" d="M95.4,136.751a1.181,1.181,0,0,1-1.181-1.181v-2.837a1.177,1.177,0,0,1,.236-.709,1.176,1.176,0,0,1-.236-.709v-4.255a1.181,1.181,0,1,1,2.362,0v4.255a1.176,1.176,0,0,1-.237.709,1.177,1.177,0,0,1,.237.709v2.837a1.181,1.181,0,0,1-1.181,1.181" transform="translate(-49.713 -66.417)" fill="#5282f0"/>
        <path id="Path_1936" data-name="Path 1936" d="M95.4,155.971a1.181,1.181,0,0,1-1.181-1.181v-.709a1.181,1.181,0,1,1,2.362,0v.709a1.181,1.181,0,0,1-1.181,1.181" transform="translate(-49.713 -80.674)" fill="#5282f0"/>
        <path id="Path_1937" data-name="Path 1937" d="M37.068,95.992H31.951a1.181,1.181,0,0,1,0-2.362h5.117a1.181,1.181,0,0,1,0,2.362" transform="translate(-16.235 -49.401)" fill="#5282f0"/>
        <path id="Path_1938" data-name="Path 1938" d="M139.483,95.992h-5.943a1.181,1.181,0,0,1,0-2.362h5.943a1.181,1.181,0,0,1,0,2.362" transform="translate(-69.836 -49.401)" fill="#5282f0"/>
        <path id="Path_1939" data-name="Path 1939" d="M146.38,95.992l-.073,0a1.2,1.2,0,0,1-1.265-1.179,1.172,1.172,0,0,1,1.171-1.181h.167a1.181,1.181,0,1,1,0,2.362" transform="translate(-76.528 -49.401)" fill="#5282f0"/>
        <path id="Path_1940" data-name="Path 1940" d="M152.544,95.992H146.6a1.181,1.181,0,0,1,0-2.362h5.943a1.181,1.181,0,0,1,0,2.362" transform="translate(-76.728 -49.401)" fill="#5282f0"/>
        <path id="Path_1941" data-name="Path 1941" d="M55.432,54.024a1.175,1.175,0,0,1-.835-.346l-4.251-4.251a1.181,1.181,0,0,1,1.67-1.67l4.251,4.251a1.181,1.181,0,0,1-.835,2.016" transform="translate(-26.381 -25.015)" fill="#5282f0"/>
        <path id="Path_1942" data-name="Path 1942" d="M94.991,93.582a1.177,1.177,0,0,1-.835-.346L84.032,83.112a1.181,1.181,0,0,1,1.67-1.67L95.826,91.567a1.181,1.181,0,0,1-.835,2.016m-14.8-14.8a1.177,1.177,0,0,1-.835-.346L69.236,68.316a1.181,1.181,0,0,1,1.67-1.67L81.031,76.771a1.181,1.181,0,0,1-.835,2.016" transform="translate(-36.348 -34.982)" fill="#5282f0"/>
        <path id="Path_1943" data-name="Path 1943" d="M136.962,135.554a1.178,1.178,0,0,1-.835-.346l-4.251-4.251a1.181,1.181,0,1,1,1.67-1.67l4.251,4.251a1.181,1.181,0,0,1-.835,2.016" transform="translate(-69.398 -68.032)" fill="#5282f0"/>
        <path id="Path_1944" data-name="Path 1944" d="M51.231,134.808a1.181,1.181,0,0,1-.836-2.016l4.342-4.346a1.181,1.181,0,1,1,1.671,1.669l-4.341,4.346a1.178,1.178,0,0,1-.836.346" transform="translate(-26.407 -67.589)" fill="#5282f0"/>
        <path id="Path_1945" data-name="Path 1945" d="M66.281,90.632a1.181,1.181,0,0,1-.835-2.016l8.3-8.3a1.181,1.181,0,0,1,1.67,1.67l-8.3,8.3a1.177,1.177,0,0,1-.835.346M77.342,79.569a1.181,1.181,0,0,1-.835-2.016l8.3-8.3a1.181,1.181,0,0,1,1.67,1.67l-8.3,8.3a1.179,1.179,0,0,1-.836.346M88.4,68.506a1.181,1.181,0,0,1-.835-2.016l8.3-8.3a1.181,1.181,0,1,1,1.67,1.67l-8.3,8.3a1.178,1.178,0,0,1-.835.346" transform="translate(-34.348 -30.522)" fill="#5282f0"/>
        <path id="Path_1946" data-name="Path 1946" d="M136.531,49.508a1.181,1.181,0,0,1-.835-2.016l4.346-4.346a1.181,1.181,0,0,1,1.67,1.67l-4.346,4.346a1.178,1.178,0,0,1-.835.346" transform="translate(-71.414 -22.582)" fill="#5282f0"/>
        <path id="Path_1947" data-name="Path 1947" d="M70.762,51.6A20.983,20.983,0,1,1,49.84,72.583,20.952,20.952,0,0,1,70.762,51.6" transform="translate(-26.297 -27.225)" fill="#fff"/>
        <g id="Group_1715" data-name="Group 1715" transform="translate(29.228 36.845)" style="isolation: isolate">
          <g id="Group_1714" data-name="Group 1714">
            <g id="Group_1713" data-name="Group 1713" clip-path="url(#clip-path-2)">
              <path id="Path_1986" data-name="Path 1986" d="M8.636-10H4.675v2.142h3.74v2.822H4.675v2.21H8.636V0H1.343V-12.818H8.636Zm7.259,0V0H12.563V-10H9.826v-2.822h8.806V-10Zm11.56,0H23.443v2.142H27.1v2.822H23.443V0H20.111V-12.818h7.344Z" transform="translate(0 14.87)" fill="#fc8d42"/>
            </g>
          </g>
        </g>
        <path id="Path_1948" data-name="Path 1948" d="M89.091,13.661a6.831,6.831,0,1,1,6.831-6.831,6.838,6.838,0,0,1-6.831,6.831m0-10.827a4,4,0,1,0,4,4,4,4,0,0,0-4-4" transform="translate(-43.402 0)" fill="#5282f0"/>
        <path id="Path_1949" data-name="Path 1949" d="M172,94.021a6.831,6.831,0,1,1,6.831-6.831A6.838,6.838,0,0,1,172,94.021m0-10.827a4,4,0,1,0,4,4,4,4,0,0,0-4-4" transform="translate(-87.148 -42.4)" fill="#5282f0"/>
        <path id="Path_1950" data-name="Path 1950" d="M6.831,94.021a6.831,6.831,0,1,1,6.831-6.831,6.838,6.838,0,0,1-6.831,6.831m0-10.827a4,4,0,1,0,4,4,4,4,0,0,0-4-4" transform="translate(0 -42.4)" fill="#5282f0"/>
        <path id="Path_1951" data-name="Path 1951" d="M89.091,176.631a6.831,6.831,0,1,1,6.831-6.831,6.838,6.838,0,0,1-6.831,6.831m0-10.827a4,4,0,1,0,4,4,4,4,0,0,0-4-4" transform="translate(-43.402 -85.987)" fill="#5282f0"/>
        <path id="Path_1952" data-name="Path 1952" d="M147.731,35.681a6.831,6.831,0,1,1,6.831-6.831,6.838,6.838,0,0,1-6.831,6.831m0-10.827a4,4,0,1,0,4,4,4,4,0,0,0-4-4" transform="translate(-74.342 -11.618)" fill="#5282f0"/>
        <path id="Path_1953" data-name="Path 1953" d="M32.191,152.031a6.831,6.831,0,1,1,6.831-6.83,6.838,6.838,0,0,1-6.831,6.83m0-10.827a4,4,0,1,0,4,4,4,4,0,0,0-4-4" transform="translate(-13.381 -73.007)" fill="#5282f0"/>
        <path id="Path_1954" data-name="Path 1954" d="M32.441,35.842a6.831,6.831,0,1,1,6.831-6.831,6.838,6.838,0,0,1-6.831,6.831m0-10.827a4,4,0,1,0,4,4,4,4,0,0,0-4-4" transform="translate(-13.512 -11.703)" fill="#5282f0"/>
        <path id="Path_1955" data-name="Path 1955" d="M147.821,152.551a6.831,6.831,0,1,1,6.831-6.831,6.838,6.838,0,0,1-6.831,6.831m0-10.827a4,4,0,1,0,4,4,4,4,0,0,0-4-4" transform="translate(-74.39 -73.282)" fill="#5282f0"/>
        <path id="Path_1956" data-name="Path 1956" d="M68.835,92.77A22.575,22.575,0,1,1,91.41,70.195,22.6,22.6,0,0,1,68.835,92.77m0-41.844A19.268,19.268,0,1,0,88.1,70.195,19.29,19.29,0,0,0,68.835,50.927" transform="translate(-24.408 -25.125)" fill="#5282f0"/>
        <path id="Path_1957" data-name="Path 1957" d="M12.969,91.75a1.479,1.479,0,1,1-1.479,1.479,1.478,1.478,0,0,1,1.479-1.479" transform="translate(-6.062 -48.409)" fill="#5282f0"/>
        <path id="Path_1958" data-name="Path 1958" d="M178.229,91.84a1.479,1.479,0,1,1-1.479,1.479,1.478,1.478,0,0,1,1.479-1.479" transform="translate(-93.257 -48.457)" fill="#5282f0"/>
        <path id="Path_1959" data-name="Path 1959" d="M95.229,174.36a1.479,1.479,0,1,1-1.479,1.479,1.478,1.478,0,0,1,1.479-1.479" transform="translate(-49.465 -91.996)" fill="#5282f0"/>
        <path id="Path_1960" data-name="Path 1960" d="M95,11.06a1.479,1.479,0,1,1-1.479,1.479A1.478,1.478,0,0,1,95,11.06" transform="translate(-49.343 -5.836)" fill="#5282f0"/>
      </g>
    </g>
  </g>
</svg>
