<svg xmlns="http://www.w3.org/2000/svg" xmlns:xlink="http://www.w3.org/1999/xlink" width="100" height="100" viewBox="0 0 100 100">
  <defs>
    <clipPath id="clip-path">
      <rect id="Rectangle_1634" data-name="Rectangle 1634" width="100" height="98.596" fill="none"/>
    </clipPath>
  </defs>
  <g id="Group_1694" data-name="Group 1694" transform="translate(-552 -665)">
    <g id="Group_1664" data-name="Group 1664" transform="translate(552 666.139)">
      <g id="Group_1663" data-name="Group 1663" clip-path="url(#clip-path)">
        <path id="Path_1910" data-name="Path 1910" d="M58.147,25.98A37.935,37.935,0,1,1,20.3,63.915,37.89,37.89,0,0,1,58.147,25.98" transform="translate(-8.183 -10.472)" fill="#fff"/>
        <path id="Path_1911" data-name="Path 1911" d="M56.535,102.626A40.323,40.323,0,1,1,96.768,62.3a40.324,40.324,0,0,1-40.234,40.323m0-75.871A35.548,35.548,0,1,0,91.993,62.3,35.543,35.543,0,0,0,56.535,26.755" transform="translate(-6.57 -8.859)" fill="#5282f0"/>
        <path id="Path_1912" data-name="Path 1912" d="M47.277,96.612a2.39,2.39,0,0,1-2.135-3.454L55.343,72.7a2.388,2.388,0,0,1,3.485-.9l5.815,3.976,3.515-5.195a2.388,2.388,0,0,1,1.291-.949l4.2-1.264,5.729-10.1a2.387,2.387,0,0,1,4.321.364l1.8,4.956,3.516,2.642a2.391,2.391,0,0,1,.256.223l5.612,5.629A2.388,2.388,0,0,1,91.5,75.453l-5.491-5.509-3.947-2.966a2.388,2.388,0,0,1-.809-1.094l-.275-.758-3.647,6.428a2.384,2.384,0,0,1-1.39,1.109l-4.307,1.3-4.383,6.477a2.387,2.387,0,0,1-3.326.633l-5.534-3.784-8.979,18a2.388,2.388,0,0,1-2.139,1.323" transform="translate(-18.094 -22.998)" fill="#fc8d42"/>
        <path id="Path_1913" data-name="Path 1913" d="M4,47.887A48.634,48.634,0,0,1,20.327,23.58" transform="translate(-1.613 -9.504)" fill="#fff"/>
        <path id="Path_1914" data-name="Path 1914" d="M2.39,48.663A2.39,2.39,0,0,1,.1,45.6,50.734,50.734,0,0,1,17.224,20.1a2.388,2.388,0,1,1,2.981,3.731A45.984,45.984,0,0,0,4.68,46.945a2.389,2.389,0,0,1-2.29,1.718" transform="translate(0 -7.892)" fill="#5282f0"/>
        <path id="Path_1915" data-name="Path 1915" d="M152.5,48.507A48.634,48.634,0,0,0,136.171,24.2" transform="translate(-54.886 -9.754)" fill="#fff"/>
        <path id="Path_1916" data-name="Path 1916" d="M150.883,49.284a2.389,2.389,0,0,1-2.29-1.718,45.981,45.981,0,0,0-15.526-23.112,2.388,2.388,0,1,1,2.981-3.731,50.735,50.735,0,0,1,17.128,25.5,2.39,2.39,0,0,1-2.293,3.059" transform="translate(-53.273 -8.142)" fill="#5282f0"/>
        <path id="Path_1917" data-name="Path 1917" d="M124.265,156.246a2.379,2.379,0,0,1-1.691-.7l-8.417-8.441a2.388,2.388,0,0,1,3.381-3.372l8.417,8.441a2.388,2.388,0,0,1-1.691,4.073" transform="translate(-45.732 -57.65)" fill="#5282f0"/>
        <path id="Path_1918" data-name="Path 1918" d="M31.939,156.246a2.388,2.388,0,0,1-1.691-4.074l8.423-8.441a2.388,2.388,0,1,1,3.38,3.373l-8.422,8.441a2.382,2.382,0,0,1-1.691.7" transform="translate(-11.911 -57.65)" fill="#5282f0"/>
        <path id="Path_1919" data-name="Path 1919" d="M88.785,17.694c.036-.382.054-.776.054-1.17a12.494,12.494,0,1,0-24.988,0c0,.394.018.782.054,1.17a37.775,37.775,0,0,1,24.88,0Z" transform="translate(-25.736 -1.612)" fill="#fff"/>
        <path id="Path_1920" data-name="Path 1920" d="M87.173,18.469a2.385,2.385,0,0,1-.787-.134,35.39,35.39,0,0,0-23.306,0A2.387,2.387,0,0,1,59.915,16.3c-.042-.458-.064-.925-.064-1.39a14.882,14.882,0,1,1,29.763,0c0,.475-.021.944-.064,1.394a2.388,2.388,0,0,1-2.377,2.163M74.733,4.775a10.131,10.131,0,0,0-9.89,8.046,40.346,40.346,0,0,1,19.78,0,10.131,10.131,0,0,0-9.89-8.046" transform="translate(-24.124)" fill="#5282f0"/>
      </g>
    </g>
    <rect id="Rectangle_1658" data-name="Rectangle 1658" width="100" height="100" transform="translate(552 665)" fill="#fff" opacity="0"/>
  </g>
</svg>
