<svg xmlns="http://www.w3.org/2000/svg" xmlns:xlink="http://www.w3.org/1999/xlink" width="100" height="100" viewBox="0 0 100 100">
  <defs>
    <clipPath id="clip-path">
      <rect id="Rectangle_1633" data-name="Rectangle 1633" width="100" height="89.645" fill="none"/>
    </clipPath>
    <clipPath id="clip-path-2">
      <rect id="Rectangle_1632" data-name="Rectangle 1632" width="53.205" height="25.975" fill="none"/>
    </clipPath>
  </defs>
  <g id="Group_1692" data-name="Group 1692" transform="translate(-552 -327)">
    <g id="Group_1662" data-name="Group 1662" transform="translate(552 327)">
      <g id="Group_1661" data-name="Group 1661" clip-path="url(#clip-path)">
        <g id="Group_1660" data-name="Group 1660" transform="translate(22.761 63.67)" style="isolation: isolate">
          <g id="Group_1659" data-name="Group 1659">
            <g id="Group_1658" data-name="Group 1658" clip-path="url(#clip-path-2)">
              <g id="Group_1657" data-name="Group 1657" style="isolation: isolate">
                <g id="Group_1656" data-name="Group 1656">
                  <g id="Group_1655" data-name="Group 1655" clip-path="url(#clip-path-2)">
                    <text id="RISK" transform="translate(0 18.293)" fill="#fc8d42" font-size="21" font-family="Futura-Bold, Futura" font-weight="700"><tspan x="0" y="0">RISK</tspan></text>
                  </g>
                </g>
              </g>
            </g>
          </g>
        </g>
        <path id="Path_1898" data-name="Path 1898" d="M27.506,18.809l9.2,9.739A34.028,34.028,0,0,1,62.432,16.187V2.45A46.7,46.7,0,0,0,27.5,18.8Z" transform="translate(-12.125 -1.08)" fill="#b7d5f6"/>
        <path id="Path_1899" data-name="Path 1899" d="M5.34,65.221V65.4s10.673-.062,11.1-.062c1.118,0,1.923-.486,1.923-1.644v-.3c0-9.085,3.248-15.582,8.588-21.933l-9.2-9.739a50.963,50.963,0,0,0-12.4,33.5Z" transform="translate(-2.354 -13.985)" fill="#d6e9ff"/>
        <path id="Path_1900" data-name="Path 1900" d="M90.343,2.45H89.98V16.187c.123,0,.24-.011.363-.011A34.019,34.019,0,0,1,116.554,28.7l9.186-9.767A46.7,46.7,0,0,0,90.343,2.45" transform="translate(-39.672 -1.08)" fill="#f9caaa"/>
        <path id="Path_1901" data-name="Path 1901" d="M146.7,31.926l-9.186,9.767a36.813,36.813,0,0,1,8.414,21.715c.006.14.011.285.017.425,0,1.113.453,1.588,2.18,1.588,2.158,0,10.863.084,10.863.084v-.2A50.963,50.963,0,0,0,146.69,31.92Z" transform="translate(-60.629 -14.074)" fill="#fca261"/>
        <path id="Path_1902" data-name="Path 1902" d="M1.957,52.13A1.957,1.957,0,0,1,0,50.173v-.168A50,50,0,1,1,100,50v.168a1.957,1.957,0,1,1-3.914,0V50a46.086,46.086,0,1,0-92.173.006v.168A1.957,1.957,0,0,1,1.957,52.13" fill="#4373f9"/>
        <path id="Path_1903" data-name="Path 1903" d="M88.207,26.282a1.957,1.957,0,0,1-1.957-1.957V16.347a1.957,1.957,0,0,1,3.914,0v7.978a1.957,1.957,0,0,1-1.957,1.957" transform="translate(-38.028 -6.345)" fill="#4373f9"/>
        <path id="Path_1904" data-name="Path 1904" d="M15.371,90.445H2.567a1.677,1.677,0,0,1,0-3.355h12.8a1.677,1.677,0,0,1,0,3.355" transform="translate(-0.392 -38.398)" fill="#4373f9"/>
        <path id="Path_1905" data-name="Path 1905" d="M163.356,90.445H150.547a1.677,1.677,0,0,1,0-3.355h12.809a1.677,1.677,0,0,1,0,3.355" transform="translate(-65.637 -38.398)" fill="#4373f9"/>
        <path id="Path_1906" data-name="Path 1906" d="M88.107,69.941a1.677,1.677,0,0,1-1.677-1.677V53.6a1.677,1.677,0,1,1,3.355,0V68.263a1.677,1.677,0,0,1-1.677,1.677" transform="translate(-38.107 -22.892)" fill="#4373f9"/>
        <path id="Path_1907" data-name="Path 1907" d="M85.722,77.32a4.7,4.7,0,1,1-4.7,4.7,4.7,4.7,0,0,1,4.7-4.7" transform="translate(-35.722 -34.091)" fill="#4373f9"/>
        <path id="Path_1908" data-name="Path 1908" d="M132.8,47.935a1.957,1.957,0,0,1-1.384-3.341l5.641-5.641a1.957,1.957,0,0,1,2.767,2.767l-5.641,5.642a1.951,1.951,0,0,1-1.384.573" transform="translate(-57.688 -16.922)" fill="#4373f9"/>
        <path id="Path_1909" data-name="Path 1909" d="M41.358,46.825a1.951,1.951,0,0,1-1.384-.573l-5.641-5.641A1.957,1.957,0,0,1,37.1,37.843l5.642,5.641a1.957,1.957,0,0,1-1.384,3.341" transform="translate(-14.885 -16.433)" fill="#4373f9"/>
      </g>
    </g>
    <rect id="Rectangle_1656" data-name="Rectangle 1656" width="100" height="100" transform="translate(552 327)" fill="#fff" opacity="0"/>
  </g>
</svg>
