<svg xmlns="http://www.w3.org/2000/svg" width="304" height="304" viewBox="0 0 304 304">
  <g id="Group_1774" data-name="Group 1774" transform="translate(-279 -162)">
    <circle id="Ellipse_80" data-name="Ellipse 80" cx="152" cy="152" r="152" transform="translate(279 162)" fill="#fff"/>
    <path id="Path_1987" data-name="Path 1987" d="M6.31-7.19A4.053,4.053,0,0,0,7.6-7.375a2.444,2.444,0,0,0,.915-.53,2.146,2.146,0,0,0,.545-.84A3.215,3.215,0,0,0,9.24-9.85a2.916,2.916,0,0,0-.18-1.05,2.076,2.076,0,0,0-.54-.8,2.4,2.4,0,0,0-.91-.505,4.305,4.305,0,0,0-1.3-.175H4.3v5.19Zm0-7.27a8.252,8.252,0,0,1,2.51.34,4.831,4.831,0,0,1,1.75.95A3.767,3.767,0,0,1,11.6-11.71a5.029,5.029,0,0,1,.335,1.86,5.138,5.138,0,0,1-.35,1.925A4,4,0,0,1,10.53-6.42a4.882,4.882,0,0,1-1.755.98,7.839,7.839,0,0,1-2.465.35H4.3V0H1.61V-14.46ZM19.74-6.31a2.972,2.972,0,0,0-.135-.9,2.151,2.151,0,0,0-.4-.745,1.883,1.883,0,0,0-.685-.505,2.351,2.351,0,0,0-.965-.185,2.288,2.288,0,0,0-1.685.61,2.991,2.991,0,0,0-.785,1.73ZM15.03-4.82a4.861,4.861,0,0,0,.28,1.365,2.792,2.792,0,0,0,.58.95,2.272,2.272,0,0,0,.855.56,3.106,3.106,0,0,0,1.1.185,3.4,3.4,0,0,0,1.035-.14,4.853,4.853,0,0,0,.76-.31q.325-.17.57-.31a.956.956,0,0,1,.475-.14.511.511,0,0,1,.46.23l.71.9a4.117,4.117,0,0,1-.92.805,5.16,5.16,0,0,1-1.065.52,5.821,5.821,0,0,1-1.13.275A8.091,8.091,0,0,1,17.62.15a5.481,5.481,0,0,1-1.99-.355,4.455,4.455,0,0,1-1.6-1.05,4.926,4.926,0,0,1-1.07-1.72,6.656,6.656,0,0,1-.39-2.375,5.679,5.679,0,0,1,.34-1.975,4.749,4.749,0,0,1,.975-1.61,4.59,4.59,0,0,1,1.55-1.085,5.106,5.106,0,0,1,2.065-.4,5.022,5.022,0,0,1,1.79.31A3.9,3.9,0,0,1,20.7-9.2a4.192,4.192,0,0,1,.925,1.46A5.439,5.439,0,0,1,21.96-5.77a1.6,1.6,0,0,1-.12.755.5.5,0,0,1-.46.2ZM26.14-8.48a4.424,4.424,0,0,1,1.14-1.445,2.43,2.43,0,0,1,1.56-.525,1.908,1.908,0,0,1,1.14.31l-.16,1.85a.478.478,0,0,1-.145.255.4.4,0,0,1-.255.075,2.914,2.914,0,0,1-.445-.05,3.439,3.439,0,0,0-.575-.05,2.07,2.07,0,0,0-.73.12A1.836,1.836,0,0,0,27.1-7.6a2.352,2.352,0,0,0-.45.545,5.318,5.318,0,0,0-.365.73V0H23.81V-10.26h1.45a.8.8,0,0,1,.53.135.793.793,0,0,1,.2.485ZM38.8-12.32v4.01h5.06v2.07H38.8v4.09h6.42V0H36.1V-14.46h9.12v2.14Zm18.9.07H53.34V0H50.65V-12.25H46.29v-2.21H57.7Zm4.6-.07v4.28h5.42v2.15H62.3V0H59.6V-14.46h9.12v2.14Zm22.49.07H80.43V0H77.74V-12.25H73.38v-2.21H84.79Zm1.82,3.77a4.424,4.424,0,0,1,1.14-1.445,2.43,2.43,0,0,1,1.56-.525,1.908,1.908,0,0,1,1.14.31l-.16,1.85a.478.478,0,0,1-.145.255.4.4,0,0,1-.255.075,2.914,2.914,0,0,1-.445-.05,3.439,3.439,0,0,0-.575-.05,2.07,2.07,0,0,0-.73.12,1.836,1.836,0,0,0-.575.345,2.352,2.352,0,0,0-.45.545,5.318,5.318,0,0,0-.365.73V0H84.28V-10.26h1.45a.8.8,0,0,1,.53.135.793.793,0,0,1,.2.485Zm10.42,4.1a13.622,13.622,0,0,0-1.8.185,4.8,4.8,0,0,0-1.17.345,1.538,1.538,0,0,0-.63.49,1.064,1.064,0,0,0-.19.61,1.072,1.072,0,0,0,.385.93,1.669,1.669,0,0,0,1,.28,2.931,2.931,0,0,0,1.315-.275A3.905,3.905,0,0,0,97.03-2.65ZM91.37-8.83a6.088,6.088,0,0,1,4.26-1.62,4.163,4.163,0,0,1,1.61.3,3.4,3.4,0,0,1,1.2.82,3.509,3.509,0,0,1,.745,1.255,4.822,4.822,0,0,1,.255,1.6V0H98.32a1.132,1.132,0,0,1-.54-.1.728.728,0,0,1-.3-.425l-.22-.74a8.93,8.93,0,0,1-.76.615,4.474,4.474,0,0,1-.77.445,4.137,4.137,0,0,1-.855.275,4.926,4.926,0,0,1-1,.1,3.94,3.94,0,0,1-1.2-.175,2.637,2.637,0,0,1-.95-.525,2.357,2.357,0,0,1-.62-.87,3.086,3.086,0,0,1-.22-1.21,2.409,2.409,0,0,1,.13-.775,2.266,2.266,0,0,1,.425-.735,3.538,3.538,0,0,1,.765-.66,4.971,4.971,0,0,1,1.155-.54,9.98,9.98,0,0,1,1.6-.375,15.932,15.932,0,0,1,2.08-.175v-.6a2.246,2.246,0,0,0-.44-1.525A1.61,1.61,0,0,0,95.32-8.5a3.015,3.015,0,0,0-1,.14,4.1,4.1,0,0,0-.695.315q-.3.175-.545.315a1.079,1.079,0,0,1-.545.14.712.712,0,0,1-.44-.135,1.128,1.128,0,0,1-.29-.315ZM108.2-7.64a2.431,2.431,0,0,0-.915-.72,2.7,2.7,0,0,0-1.065-.21,2.36,2.36,0,0,0-1.01.21,2.034,2.034,0,0,0-.77.635,3.054,3.054,0,0,0-.49,1.08,6.2,6.2,0,0,0-.17,1.545,6.858,6.858,0,0,0,.145,1.525,3,3,0,0,0,.415,1.02,1.582,1.582,0,0,0,.66.57,2.1,2.1,0,0,0,.87.175,2.527,2.527,0,0,0,1.31-.32,3.891,3.891,0,0,0,1.02-.91Zm2.47-7.22V0h-1.51a.582.582,0,0,1-.62-.45l-.21-.99A5.179,5.179,0,0,1,106.9-.29a3.848,3.848,0,0,1-1.875.44,3.4,3.4,0,0,1-1.54-.35,3.431,3.431,0,0,1-1.2-1.015,4.865,4.865,0,0,1-.78-1.645,8.308,8.308,0,0,1-.275-2.24,6.994,6.994,0,0,1,.31-2.12,5.158,5.158,0,0,1,.89-1.7,4.153,4.153,0,0,1,1.39-1.125,4.013,4.013,0,0,1,1.82-.4,3.618,3.618,0,0,1,1.47.27,3.767,3.767,0,0,1,1.09.73v-5.41Zm9.05,8.55a2.972,2.972,0,0,0-.135-.9,2.151,2.151,0,0,0-.4-.745,1.883,1.883,0,0,0-.685-.505,2.351,2.351,0,0,0-.965-.185,2.288,2.288,0,0,0-1.685.61,2.991,2.991,0,0,0-.785,1.73Zm-4.71,1.49a4.861,4.861,0,0,0,.28,1.365,2.792,2.792,0,0,0,.58.95,2.272,2.272,0,0,0,.855.56,3.106,3.106,0,0,0,1.1.185,3.4,3.4,0,0,0,1.035-.14,4.853,4.853,0,0,0,.76-.31q.325-.17.57-.31a.956.956,0,0,1,.475-.14.511.511,0,0,1,.46.23l.71.9a4.117,4.117,0,0,1-.92.805,5.16,5.16,0,0,1-1.065.52,5.821,5.821,0,0,1-1.13.275A8.091,8.091,0,0,1,117.6.15a5.481,5.481,0,0,1-1.99-.355,4.455,4.455,0,0,1-1.6-1.05,4.926,4.926,0,0,1-1.07-1.72,6.656,6.656,0,0,1-.39-2.375,5.68,5.68,0,0,1,.34-1.975,4.749,4.749,0,0,1,.975-1.61,4.59,4.59,0,0,1,1.55-1.085,5.105,5.105,0,0,1,2.065-.4,5.023,5.023,0,0,1,1.79.31,3.9,3.9,0,0,1,1.41.905,4.192,4.192,0,0,1,.925,1.46,5.439,5.439,0,0,1,.335,1.975,1.6,1.6,0,0,1-.12.755.5.5,0,0,1-.46.2ZM128-12.05a2.791,2.791,0,0,1-.355.185,1.528,1.528,0,0,1-.365.1,1.768,1.768,0,0,1,.72.28l1.59.93-.58,1-1.59-.93a3.688,3.688,0,0,1-.335-.23,1.51,1.51,0,0,1-.265-.26,2.063,2.063,0,0,1,.13.76v1.84h-1.18V-10.2a2.988,2.988,0,0,1,.025-.39,1.774,1.774,0,0,1,.085-.36,1.324,1.324,0,0,1-.26.25q-.15.11-.32.22l-1.58.92-.59-1,1.59-.92a2.225,2.225,0,0,1,.72-.28,2.019,2.019,0,0,1-.72-.29l-1.59-.93.58-1,1.59.94a3.791,3.791,0,0,1,.33.225,1.784,1.784,0,0,1,.27.255,2.034,2.034,0,0,1-.13-.75v-1.85h1.18v1.83a3.068,3.068,0,0,1-.025.4,1.432,1.432,0,0,1-.1.36,1.6,1.6,0,0,1,.27-.25q.15-.11.32-.22l1.58-.92.59,1Z" transform="translate(366 410)" fill="#03468e"/>
    <g id="Group_1774-2" data-name="Group 1774" transform="translate(340.873 231.405)">
      <path id="Path_1858" data-name="Path 1858" d="M15.835-24.8v7.339a14.783,14.783,0,0,0-8.14,4.4A13.559,13.559,0,0,0,4.359-3.65,10.225,10.225,0,0,0,7.228,4.089c1,1.067,3.069,2.669,7.339,4.137L18.5,9.56a11.847,11.847,0,0,1,3,1.334A3.136,3.136,0,0,1,22.84,13.43a4,4,0,0,1-1.2,2.8A6.029,6.029,0,0,1,17.3,17.766a15.689,15.689,0,0,1-6.071-1.535,20.97,20.97,0,0,1-4.6-3.4l-4.8,8.94a27.031,27.031,0,0,0,6.472,3.8,21.209,21.209,0,0,0,7.539,1.6v7.206h6.672V26.84A17.656,17.656,0,0,0,30.513,22.5a14.029,14.029,0,0,0,3.736-10.074,10.444,10.444,0,0,0-3.336-8.14,18.6,18.6,0,0,0-7.739-4.2L19.7-1.115a10.389,10.389,0,0,1-3.069-1.668,3.087,3.087,0,0,1-.934-2.2,2.874,2.874,0,0,1,1-2.2,5.973,5.973,0,0,1,4-1.2,12.679,12.679,0,0,1,7.472,2.869l4.4-8.54a21.849,21.849,0,0,0-10.074-3.4V-24.8Z" transform="translate(-1.824 35.418)" fill="#03468e"/>
      <path id="Path_1857" data-name="Path 1857" d="M58.7-42.613a16.384,16.384,0,0,1,10.65,4.206C76.383-32.2,81-15.174,81-3.358c0,11.416-4.22,28.24-11.654,34.648A16.384,16.384,0,0,1,58.7,35.5a16.384,16.384,0,0,1-10.65-4.206C40.215,24.481,36.4,7.057,36.4-3.558c0-12.417,4.421-28.64,11.654-34.849A16.384,16.384,0,0,1,58.7-42.613ZM115.566-3.758c0-23.633-7.837-42.86-19.893-54.677A52.965,52.965,0,0,0,58.7-73.656,52.965,52.965,0,0,0,21.729-58.435C9.673-46.618,1.836-27.391,1.836-3.758c0,23.433,7.837,42.66,19.893,54.476a52.513,52.513,0,0,0,73.944,0C107.729,38.9,115.566,19.675,115.566-3.758Z" transform="translate(38.613 73.656)" fill="#03468e"/>
    </g>
  </g>
</svg>
