<?xml version="1.0" encoding="utf-8"?>
<!-- Generator: Adobe Illustrator 28.1.0, SVG Export Plug-In . SVG Version: 6.00 Build 0)  -->
<svg version="1.1" id="Layer_1" xmlns="http://www.w3.org/2000/svg" xmlns:xlink="http://www.w3.org/1999/xlink" x="0px" y="0px"
	 viewBox="0 0 216.4 44.7" style="enable-background:new 0 0 216.4 44.7;" xml:space="preserve">
<style type="text/css">
	.st0{fill:#E83D42;}
</style>
<g>
	<g>
		<rect x="108.6" y="1" class="st0" width="3.9" height="42.9"/>
	</g>
	<g>
		<polygon class="st0" points="162.3,1 174.7,1 174.7,4.6 170.5,4.6 170.5,43.9 166.6,43.9 166.6,4.6 162.3,4.6 		"/>
	</g>
	<g>
		<polygon class="st0" points="105,1 105,43.9 100.9,43.9 95.1,17.9 95.1,43.9 91.3,43.9 91.3,1 94.8,1 101.2,29.4 101.2,1 		"/>
	</g>
	<g>
		<polygon class="st0" points="20.3,1 20.3,43.9 16.4,43.9 16.4,7.2 11.7,43.9 8.5,43.9 3.9,7.2 3.9,43.9 0,43.9 0,1 6.5,1 
			10.3,26.9 13.8,1 		"/>
	</g>
	<g>
		<path class="st0" d="M67.7,43.9c3-4.1,4.8-9.2,4.8-14.7c0-13.7-11.1-24.8-24.8-24.8c-13.7,0-24.8,11.1-24.8,24.8
			c0,5.5,1.8,10.6,4.8,14.7h5.2c-3.7-3.8-6.1-9-6.1-14.7c0-11.5,9.4-20.9,20.9-20.9c11.5,0,20.9,9.4,20.9,20.9
			c0,5.7-2.3,10.9-6,14.7H67.7z"/>
	</g>
	<path class="st0" d="M188.8,43.9H185l-1-9.7h-5.7l-0.9,9.7h-3.9L177.9,1h5.9L188.8,43.9z M183.6,30.4L181,6.7l-2.4,23.6H183.6z"/>
	<g>
		<path class="st0" d="M142.2,38.4c0,1.9-1.1,2.9-2.4,2.9c-1.3,0-2.4-1-2.4-2.9V6.1c0-1.9,1.1-2.9,2.4-2.9c1.3,0,2.4,1,2.4,2.9
			l0,1.5v8.1h3.9V9.5l0-1.8c0-5.3-2.1-7.9-6.5-7.9c-3.9,0-6.4,2.8-6.4,7l0,1.6v26.8l0,1.7c0,5.5,2.1,8.2,6.5,8.2
			c4.4,0,6.4-2.6,6.4-8.3V21.2H139v3.8h3.3V37L142.2,38.4z"/>
	</g>
	<g>
		<path class="st0" d="M158.3,37.4V26.3l-8.9-6.7V7.1c0-4.9,2.2-7.4,6.5-7.4c4.4,0,6.4,2.5,6.4,8l0,1.7v6.3h-4V7.3l0-1.2
			c0-1.9-1.1-2.9-2.4-2.9c-1.3,0-2.4,1-2.4,2.9v1.3v10.4l8.8,6.7v12.9c0,5-2.2,7.7-6.4,7.7c-4.2,0-6.5-2.5-6.5-7.5l0-1.7v-8.4h4.1
			v9.8v1.1c0,1.9,1.1,2.9,2.4,2.9c1.3,0,2.4-1,2.4-2.9L158.3,37.4z"/>
	</g>
	<path class="st0" d="M88.9,43.9H85c-0.5-1.4-0.8-2.8-0.8-4.6l0-2.2l0-1.1v-8.4c0-1.8-1.1-2.6-2.3-2.6h-2.8v18.8h-3.8V1h5
		c5.6,0,7.8,2,7.8,7.5v8c0,3.6-0.6,5.1-3.4,6.2c0,0,0.1,0,0.1,0c2.7,0.8,3.3,1.8,3.3,5.2l0,1.6v7.8C88,40.2,88.2,41.8,88.9,43.9z
		 M79.1,4.4v17h1.4c2.5,0,3.7-1.2,3.7-3.6V9c0-3.5-0.8-4.6-3.4-4.6H79.1z"/>
	<path class="st0" d="M203.5,43.9h-3.9c-0.5-1.4-0.8-2.8-0.8-4.6l0-2.2l0-1.1v-8.4c0-1.8-1.1-2.6-2.3-2.6h-2.8v18.8h-3.8V1h5
		c5.6,0,7.8,2,7.8,7.5v8c0,3.6-0.6,5.1-3.4,6.2c0,0,0.1,0,0.1,0c2.7,0.8,3.3,1.8,3.3,5.2l0,1.6v7.8
		C202.6,40.2,202.8,41.8,203.5,43.9z M193.7,4.4v17h1.4c2.5,0,3.7-1.2,3.7-3.6V9c0-3.5-0.8-4.6-3.4-4.6H193.7z"/>
	<g>
		<polygon class="st0" points="129.7,1 129.7,43.9 125.6,43.9 119.8,17.9 119.8,43.9 116,43.9 116,1 119.5,1 125.9,29.4 125.9,1 		
			"/>
	</g>
	<g>
		<path class="st0" d="M206.4,5.4c0,2.7,2.2,4.8,4.8,4.8c2.7,0,4.8-2.2,4.8-4.8c0-2.7-2.2-4.8-4.8-4.8
			C208.5,0.5,206.4,2.7,206.4,5.4z M206.9,5.4c0-2.4,1.9-4.3,4.3-4.3c2.4,0,4.3,1.9,4.3,4.3c0,2.4-1.9,4.3-4.3,4.3
			C208.8,9.7,206.9,7.8,206.9,5.4z"/>
		<path class="st0" d="M209.5,3h2.2c0.8,0,1.5,0.3,1.5,1.4c0,0.6-0.3,1.2-1.1,1.3l1.3,2.1h-0.8l-1.3-2h-1.2v2h-0.6V3z M210.1,5.2
			h1.4c0.6,0,1-0.2,1-0.8c0-0.6-0.4-0.8-1-0.8h-1.4V5.2z"/>
	</g>
</g>
</svg>
