<svg xmlns="http://www.w3.org/2000/svg" xmlns:xlink="http://www.w3.org/1999/xlink" viewBox="0 0 196.35 128.13"><defs><style>.cls-1{fill:none;}.cls-2{clip-path:url(#clip-path);}.cls-3{fill:#3eb66d;}.cls-4{fill:#2b2b2b;}</style><clipPath id="clip-path" transform="translate(0 0)"><rect class="cls-1" width="196.35" height="128.13"/></clipPath></defs><g id="Layer_2" data-name="Layer 2"><g id="Layer_1-2" data-name="Layer 1"><g id="Logo"><g class="cls-2"><g class="cls-2"><path class="cls-3" d="M195.41,42.27C188,9,138.37-8.2,84.68,3.84S-6.51,52.6,1,85.86s57,50.47,110.72,38.43,91.19-48.75,83.74-82M183.24,25.54a4,4,0,1,1-4,4,4,4,0,0,1,4-4M77.67,6.34a4,4,0,1,1-4,4,4,4,0,0,1,4-4m-64,96a4,4,0,1,1,4-4,4,4,0,0,1-4,4m105.57,19.19a4,4,0,1,1,4-4,4,4,0,0,1-4,4m-16.09-6.77c-51,5-94.66-13.56-97.42-41.55s36.38-54.76,87.42-59.8S187.84,27,190.6,55s-36.38,54.75-87.43,59.79" transform="translate(0 0)"/></g><polygon class="cls-4" points="41.4 45.88 41.4 62.21 36.88 62.21 36.88 45.88 31.15 45.88 31.15 41.97 47.13 41.97 47.13 45.88 41.4 45.88"/><g class="cls-2"><path class="cls-4" d="M66,48.69C66,51.93,64.74,54,62.17,55l5.12,7.24H61.73l-4.49-6.45H54.12v6.45H49.6V42h7.67c3.15,0,5.39.53,6.74,1.59s2,2.77,2,5.13m-5.45,2.4a3.06,3.06,0,0,0,.84-2.39,2.57,2.57,0,0,0-.86-2.24,5.55,5.55,0,0,0-3-.61H54.12v6h3.3a4.85,4.85,0,0,0,3.15-.76" transform="translate(0 0)"/><path class="cls-4" d="M85.57,62.21l-1.88-4.37H75.2l-1.88,4.37H68.51L77.26,42h4.37l8.75,20.24ZM79.46,48l-2.55,5.88H82Z" transform="translate(0 0)"/><path class="cls-4" d="M107.26,44.62a9.49,9.49,0,0,1,2.9,7.37,9.91,9.91,0,0,1-2.83,7.47c-1.88,1.84-4.75,2.75-8.61,2.75H91.8V42H99q5.42,0,8.31,2.65m-3.31,12a6,6,0,0,0,1.66-4.54A6.12,6.12,0,0,0,104,47.52c-1.12-1.08-2.82-1.61-5.12-1.61H96.31V58.22h2.87A6.69,6.69,0,0,0,104,56.65" transform="translate(0 0)"/><rect class="cls-4" x="113.6" y="41.97" width="4.52" height="20.25"/><polygon class="cls-4" points="136.83 41.97 141.35 41.97 141.35 62.21 136.83 62.21 127.19 49.53 127.19 62.21 122.67 62.21 122.67 41.97 126.9 41.97 136.83 55 136.83 41.97"/><path class="cls-4" d="M158.44,51.9H163v7.19a10.63,10.63,0,0,1-8.34,3.36,10.3,10.3,0,0,1-7.49-3,10,10,0,0,1-3-7.46,10.06,10.06,0,0,1,3.09-7.51,10.27,10.27,0,0,1,7.44-3,11,11,0,0,1,7.58,2.86l-2.35,3.39a8.9,8.9,0,0,0-2.51-1.63,6.65,6.65,0,0,0-2.47-.45,5.93,5.93,0,0,0-4.35,1.75,6.25,6.25,0,0,0-1.76,4.62,6.26,6.26,0,0,0,1.69,4.59,5.47,5.47,0,0,0,4,1.72,7.83,7.83,0,0,0,3.91-.89Z" transform="translate(0 0)"/><path class="cls-4" d="M42.13,83.71a6.65,6.65,0,0,0,5.44-2.64l2.9,3A10.91,10.91,0,0,1,34.64,85a10.68,10.68,0,0,1,.06-15,10.37,10.37,0,0,1,7.54-3,10.7,10.7,0,0,1,8.34,3.8L47.77,74a6.57,6.57,0,0,0-5.33-2.67A6.18,6.18,0,0,0,38.08,73a5.81,5.81,0,0,0-1.81,4.48A6.13,6.13,0,0,0,38,82a5.65,5.65,0,0,0,4.15,1.71" transform="translate(0 0)"/><polygon class="cls-4" points="67.32 67.46 67.32 71.48 57.24 71.48 57.24 75.65 66.31 75.65 66.31 79.5 57.24 79.5 57.24 83.7 67.64 83.7 67.64 87.7 52.73 87.7 52.73 67.46 67.32 67.46"/><polygon class="cls-4" points="84.38 67.46 88.9 67.46 88.9 87.7 84.38 87.7 74.74 75.02 74.74 87.7 70.22 87.7 70.22 67.46 74.45 67.46 84.38 80.49 84.38 67.46"/><polygon class="cls-4" points="101.61 71.37 101.61 87.7 97.1 87.7 97.1 71.37 91.36 71.37 91.36 67.46 107.35 67.46 107.35 71.37 101.61 71.37"/><path class="cls-4" d="M126.23,74.18c0,3.24-1.28,5.34-3.85,6.28l5.13,7.24H122l-4.49-6.46h-3.13V87.7h-4.52V67.46h7.68c3.14,0,5.39.53,6.73,1.59s2,2.77,2,5.13m-5.44,2.4a3.06,3.06,0,0,0,.84-2.39,2.54,2.54,0,0,0-.87-2.24,5.51,5.51,0,0,0-3-.61h-3.39v6h3.3a4.87,4.87,0,0,0,3.16-.75" transform="translate(0 0)"/><path class="cls-4" d="M145.2,87.7l-1.88-4.37h-8.49L133,87.7h-4.81l8.75-20.24h4.38L150,87.7Zm-6.11-14.22-2.55,5.88h5.07Z" transform="translate(0 0)"/><polygon class="cls-4" points="150.85 87.7 150.85 67.46 155.37 67.46 155.37 83.68 164 83.68 164 87.7 150.85 87.7"/><polygon class="cls-4" points="162.06 68.77 162.06 74.11 160.59 74.11 160.59 68.77 158.71 68.77 158.71 67.49 163.94 67.49 163.94 68.77 162.06 68.77"/><polygon class="cls-4" points="170.94 69.94 169.16 73.56 168.27 73.56 166.5 69.94 166.5 74.11 165.02 74.11 165.02 67.49 167.01 67.49 168.72 71.13 170.43 67.49 172.42 67.49 172.42 74.11 170.94 74.11 170.94 69.94"/></g></g></g></g></g></svg>