<svg xmlns="http://www.w3.org/2000/svg" xmlns:xlink="http://www.w3.org/1999/xlink" width="100" height="100" viewBox="0 0 100 100">
  <defs>
    <clipPath id="clip-path">
      <rect id="Rectangle_1644" data-name="Rectangle 1644" width="100" height="99.979" fill="none"/>
    </clipPath>
  </defs>
  <g id="Group_1689" data-name="Group 1689" transform="translate(-100 -327)">
    <rect id="Rectangle_1653" data-name="Rectangle 1653" width="100" height="100" transform="translate(100 327)" fill="#fff" opacity="0"/>
    <g id="Group_1666" data-name="Group 1666" transform="translate(100 327)">
      <g id="Group_1665" data-name="Group 1665" clip-path="url(#clip-path)">
        <path id="Path_1921" data-name="Path 1921" d="M94.383,174.681a1.39,1.39,0,0,1-.531,1.91,1.634,1.634,0,0,1-.69.159l-5.942-.053-5.942-.053a1.37,1.37,0,0,1-1.379-1.379,1.218,1.218,0,0,1,.212-.743l3.024-5.146,3.024-5.146a1.39,1.39,0,0,1,1.91-.531,1.686,1.686,0,0,1,.531.531l2.918,5.2Z" transform="translate(-37.513 -76.772)" fill="#5282f0"/>
        <rect id="Rectangle_1635" data-name="Rectangle 1635" width="2.653" height="95.491" transform="translate(2.064 81.005) rotate(-89.691)" fill="#5282f0"/>
        <path id="Path_1922" data-name="Path 1922" d="M2.653,145.53l29.973.159a2.653,2.653,0,1,1,0,5.305l-29.973-.159A2.66,2.66,0,0,1,0,148.183a2.627,2.627,0,0,1,2.653-2.653" transform="translate(0 -68.326)" fill="#5282f0"/>
        <path id="Path_1923" data-name="Path 1923" d="M124.953,145.428l29.867.318a2.626,2.626,0,0,1-.053,5.252L124.9,150.68a2.65,2.65,0,0,1-2.6-2.653,2.551,2.551,0,0,1,2.653-2.6" transform="translate(-57.419 -68.277)" fill="#5282f0"/>
        <path id="Path_1924" data-name="Path 1924" d="M22.446,80.34c8.995,0,16.286,6.144,16.286,13.724s-7.292,13.724-16.286,13.724S6.16,101.644,6.16,94.064,13.452,80.34,22.446,80.34" transform="translate(-2.892 -37.719)" fill="#fff"/>
        <path id="Path_1925" data-name="Path 1925" d="M20.8,108c-10,0-18.143-6.99-18.143-15.581S10.8,76.84,20.8,76.84s18.143,6.989,18.143,15.581S30.807,108,20.8,108m0-27.448c-7.957,0-14.43,5.324-14.43,11.867s6.473,11.867,14.43,11.867,14.43-5.324,14.43-11.867S28.76,80.554,20.8,80.554" transform="translate(-1.249 -36.076)" fill="#5282f0"/>
        <path id="Path_1926" data-name="Path 1926" d="M22.446,55.49c8.995,0,16.286,6.144,16.286,13.724S31.441,82.938,22.446,82.938,6.16,76.794,6.16,69.214,13.452,55.49,22.446,55.49" transform="translate(-2.892 -26.052)" fill="#fff"/>
        <path id="Path_1927" data-name="Path 1927" d="M20.8,83.152c-10,0-18.143-6.989-18.143-15.581S10.8,51.99,20.8,51.99s18.143,6.989,18.143,15.581S30.807,83.152,20.8,83.152m0-27.448c-7.957,0-14.43,5.324-14.43,11.867S12.847,79.438,20.8,79.438s14.43-5.324,14.43-11.867S28.76,55.7,20.8,55.7" transform="translate(-1.249 -24.409)" fill="#5282f0"/>
        <rect id="Rectangle_1636" data-name="Rectangle 1636" width="3.714" height="12.552" transform="translate(1.406 43.613)" fill="#5282f0"/>
        <rect id="Rectangle_1637" data-name="Rectangle 1637" width="3.714" height="12.552" transform="translate(33.984 43.613)" fill="#5282f0"/>
        <path id="Path_1928" data-name="Path 1928" d="M32.372,81.679h-1.48V80.57a7.791,7.791,0,0,1-3.9-1.077,3.023,3.023,0,0,1-1.438-2.578h3.029a1.547,1.547,0,0,0,.695,1.141,3.4,3.4,0,0,0,1.639.541v-3.39l-1.125-.212a5.95,5.95,0,0,1-2.918-1.257,2.881,2.881,0,0,1-1.008-2.249,3.1,3.1,0,0,1,1.326-2.578,7.052,7.052,0,0,1,3.7-1.141v-1.2h1.48v1.2a6.748,6.748,0,0,1,3.544,1.141A3.059,3.059,0,0,1,37.264,71.4H34.346a1.442,1.442,0,0,0-.562-1.077,2.512,2.512,0,0,0-1.39-.541v3.236l1.125.18c2.695.477,4.064,1.65,4.064,3.538a3.1,3.1,0,0,1-1.347,2.637A7.3,7.3,0,0,1,32.4,80.538l-.021,1.141Zm-3.459-10.4c0,.78.653,1.289,1.973,1.5v-3a2.453,2.453,0,0,0-1.416.451,1.279,1.279,0,0,0-.562,1.05ZM34.569,77a1.208,1.208,0,0,0-.541-1.019,3.74,3.74,0,0,0-1.66-.568v3.178a2.957,2.957,0,0,0,1.618-.477,1.24,1.24,0,0,0,.584-1.109Z" transform="translate(-11.996 -31.254)" fill="#fc8d42"/>
        <path id="Path_1929" data-name="Path 1929" d="M132.786,80.34c8.995,0,16.286,6.144,16.286,13.724s-7.292,13.724-16.286,13.724S116.5,101.644,116.5,94.064s7.292-13.724,16.286-13.724" transform="translate(-54.696 -37.719)" fill="#fff"/>
        <path id="Path_1930" data-name="Path 1930" d="M131.143,108c-10,0-18.143-6.99-18.143-15.581s8.139-15.581,18.143-15.581,18.143,6.989,18.143,15.581S141.147,108,131.143,108m0-27.448c-7.957,0-14.43,5.324-14.43,11.867s6.473,11.867,14.43,11.867,14.43-5.324,14.43-11.867-6.473-11.867-14.43-11.867" transform="translate(-53.053 -36.076)" fill="#5282f0"/>
        <rect id="Rectangle_1638" data-name="Rectangle 1638" width="3.714" height="12.552" transform="translate(59.947 43.613)" fill="#5282f0"/>
        <rect id="Rectangle_1639" data-name="Rectangle 1639" width="3.714" height="12.552" transform="translate(92.525 43.613)" fill="#5282f0"/>
        <path id="Path_1931" data-name="Path 1931" d="M132.786,54.25c8.995,0,16.286,6.144,16.286,13.724S141.781,81.7,132.786,81.7,116.5,75.554,116.5,67.974s7.292-13.724,16.286-13.724" transform="translate(-54.696 -25.47)" fill="#fff"/>
        <path id="Path_1932" data-name="Path 1932" d="M131.143,81.912c-10,0-18.143-6.99-18.143-15.581s8.139-15.581,18.143-15.581,18.143,6.989,18.143,15.581-8.139,15.581-18.143,15.581m0-27.448c-7.957,0-14.43,5.324-14.43,11.867S123.187,78.2,131.143,78.2s14.43-5.324,14.43-11.867-6.473-11.867-14.43-11.867" transform="translate(-53.053 -23.827)" fill="#5282f0"/>
        <rect id="Rectangle_1640" data-name="Rectangle 1640" width="3.714" height="12.552" transform="translate(59.947 29.767)" fill="#5282f0"/>
        <rect id="Rectangle_1641" data-name="Rectangle 1641" width="3.714" height="12.552" transform="translate(92.525 29.767)" fill="#5282f0"/>
        <path id="Path_1933" data-name="Path 1933" d="M132.786,28.36c8.995,0,16.286,6.144,16.286,13.724s-7.292,13.724-16.286,13.724S116.5,49.664,116.5,42.084s7.292-13.724,16.286-13.724" transform="translate(-54.696 -13.315)" fill="#fff"/>
        <path id="Path_1934" data-name="Path 1934" d="M131.143,56.022c-10,0-18.143-6.989-18.143-15.581s8.139-15.581,18.143-15.581,18.143,6.989,18.143,15.581-8.139,15.581-18.143,15.581m0-27.448c-7.957,0-14.43,5.324-14.43,11.867s6.473,11.867,14.43,11.867,14.43-5.324,14.43-11.867-6.473-11.867-14.43-11.867" transform="translate(-53.053 -11.672)" fill="#5282f0"/>
        <rect id="Rectangle_1642" data-name="Rectangle 1642" width="3.714" height="12.552" transform="translate(59.947 16.032)" fill="#5282f0"/>
        <rect id="Rectangle_1643" data-name="Rectangle 1643" width="3.714" height="12.552" transform="translate(92.525 16.032)" fill="#5282f0"/>
        <path id="Path_1935" data-name="Path 1935" d="M132.786,3.5c8.995,0,16.286,6.144,16.286,13.724s-7.292,13.724-16.286,13.724S116.5,24.8,116.5,17.224,123.792,3.5,132.786,3.5" transform="translate(-54.696 -1.643)" fill="#fff"/>
        <path id="Path_1936" data-name="Path 1936" d="M131.143,31.162c-10,0-18.143-6.99-18.143-15.581S121.139,0,131.143,0s18.143,6.989,18.143,15.581-8.139,15.581-18.143,15.581m0-27.448c-7.957,0-14.43,5.324-14.43,11.867s6.473,11.867,14.43,11.867,14.43-5.324,14.43-11.867S139.1,3.714,131.143,3.714" transform="translate(-53.053)" fill="#5282f0"/>
        <path id="Path_1937" data-name="Path 1937" d="M142.712,29.689h-1.48V28.58a7.791,7.791,0,0,1-3.9-1.077,3.023,3.023,0,0,1-1.438-2.578h3.029a1.547,1.547,0,0,0,.695,1.141,3.4,3.4,0,0,0,1.639.541v-3.39L140.129,23a5.95,5.95,0,0,1-2.918-1.257A2.881,2.881,0,0,1,136.2,19.5a3.1,3.1,0,0,1,1.326-2.578,7.053,7.053,0,0,1,3.7-1.141v-1.2h1.48v1.2a6.748,6.748,0,0,1,3.544,1.141,3.059,3.059,0,0,1,1.347,2.488h-2.918a1.442,1.442,0,0,0-.562-1.077,2.512,2.512,0,0,0-1.39-.541v3.236l1.125.18c2.695.477,4.064,1.65,4.064,3.538a3.1,3.1,0,0,1-1.347,2.637,7.3,7.3,0,0,1-3.836,1.167l-.021,1.141Zm-3.459-10.4c0,.78.653,1.289,1.973,1.5v-3a2.453,2.453,0,0,0-1.416.451,1.279,1.279,0,0,0-.562,1.05Zm5.655,5.724a1.208,1.208,0,0,0-.541-1.019,3.74,3.74,0,0,0-1.66-.568V26.6a2.957,2.957,0,0,0,1.618-.477,1.24,1.24,0,0,0,.584-1.109Z" transform="translate(-63.8 -6.845)" fill="#fc8d42"/>
      </g>
    </g>
  </g>
</svg>
