<svg xmlns="http://www.w3.org/2000/svg" xmlns:xlink="http://www.w3.org/1999/xlink" width="100" height="100" viewBox="0 0 100 100">
  <defs>
    <clipPath id="clip-path">
      <rect id="Rectangle_1630" data-name="Rectangle 1630" width="100" height="84.757" fill="none"/>
    </clipPath>
  </defs>
  <g id="Group_1693" data-name="Group 1693" transform="translate(-552 -499)">
    <g id="Group_1654" data-name="Group 1654" transform="translate(552 506.45)">
      <rect id="Rectangle_1628" data-name="Rectangle 1628" width="44.808" height="43.211" transform="translate(40.926 40.547)" fill="#fc8d42"/>
      <rect id="Rectangle_1629" data-name="Rectangle 1629" width="44.808" height="12.862" transform="translate(40.926 29.807)" fill="#d7e9ff"/>
      <g id="Group_1653" data-name="Group 1653">
        <g id="Group_1652" data-name="Group 1652" clip-path="url(#clip-path)">
          <path id="Path_1888" data-name="Path 1888" d="M124.868,109.8H81.221a1.792,1.792,0,0,1-1.792-1.792V53.834a1.792,1.792,0,0,1,3.583,0V106.22h40.065V53.712a1.792,1.792,0,0,1,3.583,0v54.3a1.792,1.792,0,0,1-1.792,1.792" transform="translate(-38.771 -25.343)" fill="#5282f0"/>
          <path id="Path_1889" data-name="Path 1889" d="M81.222,30.283a1.794,1.794,0,0,1-1.792-1.792V22.349a1.792,1.792,0,0,1,3.583,0v6.143a1.794,1.794,0,0,1-1.792,1.792m43.652-.123a1.794,1.794,0,0,1-1.792-1.792V22.712a1.792,1.792,0,0,1,3.583,0v5.656a1.793,1.793,0,0,1-1.792,1.792m0-11.8a1.794,1.794,0,0,1-1.792-1.792V10.427a1.792,1.792,0,1,1,3.583,0v6.143a1.793,1.793,0,0,1-1.792,1.792M81.222,18a1.794,1.794,0,0,1-1.792-1.792V10.064a1.792,1.792,0,0,1,3.583,0v6.143A1.794,1.794,0,0,1,81.222,18m42.6-11.707a1.787,1.787,0,0,1-1.485-.783,4.352,4.352,0,0,0-3.6-1.925h-.148a1.792,1.792,0,0,1,0-3.583h.148A7.925,7.925,0,0,1,125.3,3.491a1.8,1.8,0,0,1-.476,2.488,1.762,1.762,0,0,1-1,.312m-41.33-.3A1.79,1.79,0,0,1,80.7,4.2a1.758,1.758,0,0,1,.374-1.09A7.974,7.974,0,0,1,87.364,0h.512a1.792,1.792,0,0,1,0,3.583h-.512A4.326,4.326,0,0,0,83.914,5.3a1.793,1.793,0,0,1-1.424.7m29.956-2.411H106.3A1.792,1.792,0,0,1,106.3,0h6.148a1.792,1.792,0,0,1,0,3.583m-12.285,0H94.019a1.792,1.792,0,1,1,0-3.583h6.143a1.792,1.792,0,0,1,0,3.583" transform="translate(-38.772)" fill="#5282f0"/>
          <path id="Path_1890" data-name="Path 1890" d="M125.43,162.163H57.561a1.792,1.792,0,1,1,0-3.583h67.87a1.792,1.792,0,1,1,0,3.583" transform="translate(-27.222 -77.406)" fill="#5282f0"/>
          <path id="Path_1891" data-name="Path 1891" d="M28.516,53.3H5.113A5.11,5.11,0,0,1,.681,45.651l11.7-20.47a5.115,5.115,0,0,1,8.873,0l11.7,20.473A5.11,5.11,0,0,1,28.516,53.3m-11.7-27.1a1.5,1.5,0,0,0-1.328.768L3.792,47.429a1.527,1.527,0,0,0,1.321,2.285h23.4a1.527,1.527,0,0,0,1.321-2.285l-11.7-20.47a1.494,1.494,0,0,0-1.326-.766" transform="translate(0 -11.036)" fill="#fc8d42"/>
          <path id="Path_1892" data-name="Path 1892" d="M32,52.368a.88.88,0,0,1-.88-.88v-5.9a.88.88,0,1,1,1.761,0v5.9a.88.88,0,0,1-.88.88" transform="translate(-15.19 -21.824)" fill="#fc8d42"/>
          <path id="Path_1893" data-name="Path 1893" d="M31.267,52.4a1.65,1.65,0,0,1-1.648-1.648v-5.9a1.648,1.648,0,1,1,3.3,0v5.9A1.65,1.65,0,0,1,31.267,52.4m0-7.658a.113.113,0,0,0-.113.113v5.9c0,.124.226.124.225,0v-5.9a.113.113,0,0,0-.113-.113" transform="translate(-14.458 -21.092)" fill="#fc8d42"/>
          <path id="Path_1894" data-name="Path 1894" d="M32,67.3a.88.88,0,1,0-.88-.88.89.89,0,0,0,.88.88" transform="translate(-15.189 -31.992)" fill="#fc8d42"/>
          <path id="Path_1895" data-name="Path 1895" d="M31.267,67.336a1.664,1.664,0,0,1-1.647-1.615,1.57,1.57,0,0,1,.449-1.159,1.644,1.644,0,0,1,2.846,1.093,1.569,1.569,0,0,1-.449,1.159,1.672,1.672,0,0,1-1.2.522m0-1.761a.157.157,0,0,0-.114.084c0,.056.04.141.114.141a.157.157,0,0,0,.114-.084c0-.055-.039-.141-.114-.141" transform="translate(-14.457 -31.259)" fill="#fc8d42"/>
          <path id="Path_1896" data-name="Path 1896" d="M113.582,38.565a1.788,1.788,0,0,1-.757-.168L103.7,34.144a1.792,1.792,0,0,1,1.515-3.247l8.342,3.89,8.6-4.241a1.792,1.792,0,0,1,1.586,3.213l-9.367,4.622a1.8,1.8,0,0,1-.793.185" transform="translate(-50.115 -14.819)" fill="#5282f0"/>
          <path id="Path_1897" data-name="Path 1897" d="M122.521,29.628a1.792,1.792,0,0,1-1.792-1.792V19.662a1.792,1.792,0,1,1,3.583,0v8.175a1.792,1.792,0,0,1-1.792,1.792" transform="translate(-58.93 -8.723)" fill="#5282f0"/>
        </g>
      </g>
    </g>
    <rect id="Rectangle_1657" data-name="Rectangle 1657" width="100" height="100" transform="translate(552 499)" fill="#fff" opacity="0"/>
  </g>
</svg>
