<svg xmlns="http://www.w3.org/2000/svg" xmlns:xlink="http://www.w3.org/1999/xlink" width="100" height="100" viewBox="0 0 100 100">
  <defs>
    <clipPath id="clip-path">
      <rect id="Rectangle_1647" data-name="Rectangle 1647" width="76.53" height="98.596" fill="none"/>
    </clipPath>
    <clipPath id="clip-path-2">
      <rect id="Rectangle_1646" data-name="Rectangle 1646" width="35.12" height="42.331" fill="none"/>
    </clipPath>
  </defs>
  <g id="Group_1691" data-name="Group 1691" transform="translate(-100 -666)">
    <g id="Group_1674" data-name="Group 1674" transform="translate(111.734 666.139)">
      <g id="Group_1673" data-name="Group 1673" clip-path="url(#clip-path)">
        <g id="Group_1672" data-name="Group 1672" transform="translate(21.41 39.407)" style="isolation: isolate">
          <g id="Group_1671" data-name="Group 1671">
            <g id="Group_1670" data-name="Group 1670" clip-path="url(#clip-path-2)">
              <g id="Group_1669" data-name="Group 1669" style="isolation: isolate">
                <g id="Group_1668" data-name="Group 1668">
                  <g id="Group_1667" data-name="Group 1667" clip-path="url(#clip-path-2)">
                    <text id="_" data-name="%" transform="translate(0 27.253)" fill="#fc8d42" font-size="32" font-family="Futura-Bold, Futura" font-weight="700"><tspan x="0" y="0">%</tspan></text>
                  </g>
                </g>
              </g>
            </g>
          </g>
        </g>
        <path id="Path_1938" data-name="Path 1938" d="M70.771,36.244h-50.2a1.934,1.934,0,1,1,0-3.868h50.2a1.934,1.934,0,1,1,0,3.868" transform="translate(-7.406 -12.868)" fill="#5282f0"/>
        <path id="Path_1939" data-name="Path 1939" d="M37.51,111.687a41.543,41.543,0,0,1-22.245-6.17C4.389,98.558-.98,86.971.147,72.884c.976-9.6,5.965-19.474,14.419-28.6A78.587,78.587,0,0,1,26.791,33.533c.518-.554,1.35-.56,3.049-.572,1-.006,2.338-.012,3.687-.018,2.693-.006,5.435-.006,5.64-.006h.012l10.135.054c.59.018,1.018,0,5.248,3.681A94.52,94.52,0,0,1,63.352,45.4c5.911,6.724,13,17.028,13.165,27.915C76.855,87.9,70.456,99.66,58.49,106.391a43.06,43.06,0,0,1-20.974,5.3ZM28.815,36.84C25.628,39.094,5.991,53.711,4,73.233,3,85.784,7.733,96.105,17.349,102.257c11.183,7.152,27.319,7.465,39.231.765,10.659-6,16.359-16.521,16.057-29.632C72.366,55.935,51.7,39.208,48.663,36.858l-9.508-.048C35.762,36.81,30.472,36.822,28.815,36.84Zm.494-.343-.06.042-.042.03c.036-.024.072-.048.1-.072" transform="translate(0 -13.091)" fill="#5282f0"/>
        <path id="Path_1940" data-name="Path 1940" d="M59.858,23.773l-22.649-.018-.542-.452a47.984,47.984,0,0,1-9.056-10.725c-2.3-3.742-1.934-6.519-1.223-8.194A7.35,7.35,0,0,1,31.274.214c2.356-.53,5.007-.247,10.906,2.8,4.037,2.079,5.8,2.386,6.188,2.428l.271-.072.06.078c.349-.036,2.109-.307,6.188-2.41,5.9-3.043,8.55-3.326,10.906-2.8a7.363,7.363,0,0,1,4.887,4.17c.7,1.669,1.066,4.447-1.223,8.194A47.984,47.984,0,0,1,60.4,23.327l-.542.452Zm-9.4-3.874h7.959a45.275,45.275,0,0,0,7.73-9.327c.789-1.289,1.6-3.151.958-4.664A3.573,3.573,0,0,0,64.938,4c-1.181-.265-2.9-.319-8.285,2.458-4.947,2.549-7.23,2.85-8.11,2.85-.886.03-3.163-.289-8.152-2.862-5.381-2.778-7.1-2.729-8.285-2.458a3.583,3.583,0,0,0-2.169,1.9c-.639,1.512.169,3.368.958,4.664a45.85,45.85,0,0,0,7.73,9.327l11.816.018Z" transform="translate(-10.274 0)" fill="#5282f0"/>
        <path id="Path_1941" data-name="Path 1941" d="M71.342,133.9a1.384,1.384,0,0,1-.193-2.754,31.141,31.141,0,0,0,4.38-.94,1.384,1.384,0,0,1,.777,2.657,33.809,33.809,0,0,1-4.76,1.024,1.1,1.1,0,0,1-.2.012Zm12.527-4.748a1.383,1.383,0,0,1-.789-2.519,24.441,24.441,0,0,0,3.928-3.434,1.382,1.382,0,1,1,2.037,1.868A26.957,26.957,0,0,1,84.67,128.9a1.372,1.372,0,0,1-.789.247Zm8.972-11.014a1.323,1.323,0,0,1-.56-.121,1.379,1.379,0,0,1-.7-1.826,23.1,23.1,0,0,0,1.621-4.923,1.383,1.383,0,0,1,2.729.446,25.145,25.145,0,0,1-1.82,5.6,1.387,1.387,0,0,1-1.265.819Z" transform="translate(-27.807 -43.767)" fill="#5282f0"/>
        <path id="Path_1942" data-name="Path 1942" d="M61.605,30.254a1.934,1.934,0,0,1-.982-3.6c1.494-.88,5.646-4.037,5.109-6.917a1.937,1.937,0,1,1,3.808-.711C70.685,25.181,62.907,29.8,62.575,30a1.92,1.92,0,0,1-.976.265Z" transform="translate(-23.716 -6.933)" fill="#5282f0"/>
        <path id="Path_1943" data-name="Path 1943" d="M57.169,23.079a1.312,1.312,0,0,1-.633-.157,1.374,1.374,0,0,1-.59-1.862c.693-1.332-1.44-2.772-1.458-2.79a1.385,1.385,0,0,1,1.524-2.314c1.47.964,3.862,3.531,2.392,6.369a1.382,1.382,0,0,1-1.229.747Z" transform="translate(-21.412 -6.253)" fill="#5282f0"/>
      </g>
    </g>
    <rect id="Rectangle_1655" data-name="Rectangle 1655" width="100" height="100" transform="translate(100 666)" fill="#fff" opacity="0"/>
  </g>
</svg>
